<svg width="960" height="640" viewBox="0 0 960 640" fill="none" xmlns="http://www.w3.org/2000/svg">
  <defs>
    <linearGradient id="bg" x1="0" y1="0" x2="1" y2="1">
      <stop offset="0%" stop-color="#2DD4BF" stop-opacity="0.4"/>
      <stop offset="100%" stop-color="#1E1B4B" stop-opacity="0.1"/>
    </linearGradient>
  </defs>
  <rect width="960" height="640" rx="40" fill="url(#bg)"/>
  <circle cx="700" cy="180" r="90" fill="#F59E0B" fill-opacity="0.2"/>
  <rect x="140" y="160" width="380" height="340" rx="40" fill="#FFFFFF"/>
  <rect x="180" y="210" width="300" height="18" rx="9" fill="#D0E0E3"/>
  <rect x="180" y="250" width="220" height="18" rx="9" fill="#D0E0E3"/>
  <rect x="180" y="290" width="260" height="18" rx="9" fill="#D0E0E3"/>
  <rect x="180" y="330" width="240" height="18" rx="9" fill="#D0E0E3"/>
  <rect x="520" y="300" width="240" height="260" rx="60" fill="#FFFFFF"/>
  <circle cx="640" cy="280" r="80" fill="#1E1B4B" fill-opacity="0.15"/>
  <circle cx="640" cy="260" r="52" fill="#F8FAFC"/>
  <path d="M610 260 C620 230 660 230 670 260" stroke="#1E1B4B" stroke-width="6" stroke-linecap="round"/>
  <path d="M620 280 C635 295 655 295 670 280" stroke="#1E1B4B" stroke-width="6" stroke-linecap="round"/>
  <rect x="610" y="310" width="60" height="90" rx="24" fill="#2DD4BF" fill-opacity="0.5"/>
  <rect x="585" y="380" width="110" height="140" rx="40" fill="#1E1B4B" fill-opacity="0.15"/>
  <rect x="560" y="410" width="60" height="120" rx="24" fill="#1E1B4B" fill-opacity="0.12"/>
  <rect x="660" y="410" width="60" height="120" rx="24" fill="#1E1B4B" fill-opacity="0.12"/>
  <rect x="120" y="520" width="720" height="40" rx="20" fill="#FFFFFF" fill-opacity="0.8"/>
</svg>
